<?xml version="1.0" standalone="no"?>
<!DOCTYPE svg PUBLIC "-//W3C//DTD SVG 20010904//EN"
 "http://www.w3.org/TR/2001/REC-SVG-20010904/DTD/svg10.dtd">
<svg version="1.0" xmlns="http://www.w3.org/2000/svg"
 width="700.000000pt" height="700.000000pt" viewBox="0 0 700.000000 700.000000"
 preserveAspectRatio="xMidYMid meet">
<metadata>
Created by potrace 1.11, written by Peter Selinger 2001-2013
</metadata>
<g transform="translate(0.000000,700.000000) scale(0.100000,-0.100000)"
fill="#000000" stroke="none">
<path d="M3630 6985 c-429 -70 -758 -359 -886 -782 l-28 -92 -43 -10 c-24 -6
-68 -22 -97 -36 -30 -14 -57 -25 -59 -25 -2 0 -32 36 -66 81 -216 278 -575
540 -916 669 -33 12 -69 26 -80 31 -63 26 -307 84 -394 93 -29 4 -57 9 -61 11
-11 7 -199 7 -230 1 -13 -3 -41 -8 -62 -11 -95 -15 -297 -103 -363 -161 -114
-97 -174 -168 -230 -268 -41 -74 -89 -204 -104 -286 -10 -55 -8 -659 3 -730 3
-19 8 -60 11 -90 43 -398 196 -834 439 -1243 24 -40 27 -51 15 -58 -8 -5 -19
-9 -25 -9 -25 0 -155 -98 -221 -166 -145 -148 -222 -328 -228 -532 -4 -140 23
-241 94 -350 l34 -53 -22 -37 c-83 -139 -107 -234 -104 -417 3 -305 144 -595
385 -794 54 -44 491 -317 699 -436 144 -82 163 -99 444 -375 321 -317 332
-328 445 -413 123 -93 256 -176 378 -236 109 -54 191 -92 207 -96 5 -1 17 -5
25 -8 130 -49 371 -115 450 -122 8 -1 56 -7 105 -15 140 -21 629 -19 740 4 11
2 43 7 70 10 28 4 66 11 85 16 19 5 46 11 60 14 88 17 302 85 390 123 350 155
534 288 914 663 350 345 339 336 456 406 36 21 74 44 85 51 11 7 29 17 40 22
80 41 556 338 608 380 162 129 284 304 351 503 41 122 51 188 50 338 -1 75 -7
137 -18 178 -16 59 -71 186 -98 223 -9 14 -5 27 23 70 75 116 101 214 94 359
-10 208 -95 395 -250 545 -40 39 -100 86 -134 105 -112 63 -109 57 -69 121
197 309 368 767 414 1106 3 26 8 51 10 54 2 3 6 34 10 70 3 35 9 95 13 134 4
38 8 193 9 345 2 234 -1 288 -17 365 -74 359 -349 630 -701 691 -111 20 -207
20 -335 0 -42 -7 -53 -8 -145 -26 -118 -23 -265 -71 -422 -136 l-106 -45 -49
24 c-46 23 -87 36 -143 43 -37 5 -499 4 -540 -1 -98 -12 -118 -16 -150 -25
-49 -14 -47 -15 -85 44 -38 59 -111 128 -165 156 -72 37 -147 49 -294 48 -77
-1 -175 -7 -216 -13z"/>
</g>
</svg>
